<svg xmlns="http://www.w3.org/2000/svg" viewBox="0 0 245.34 245.34"><defs><style>.cls-1{fill:#352423;}</style></defs><title>zegar</title><g id="Warstwa_2" data-name="Warstwa 2"><g id="Warstwa_1-2" data-name="Warstwa 1"><rect class="cls-1" x="120.54" width="4.25" height="15.85"/><rect class="cls-1" x="63.17" y="15.37" width="4.25" height="15.85" transform="matrix(0.87, -0.5, 0.5, 0.87, -2.9, 35.77)"/><rect class="cls-1" x="21.17" y="57.37" width="4.25" height="15.85" transform="translate(-44.9 52.83) rotate(-60)"/><rect class="cls-1" y="120.54" width="15.85" height="4.25"/><rect class="cls-1" x="15.37" y="177.92" width="15.85" height="4.25" transform="translate(-86.91 35.78) rotate(-30)"/><rect class="cls-1" x="57.37" y="219.92" width="15.85" height="4.25" transform="matrix(0.5, -0.87, 0.87, 0.5, -159.64, 167.53)"/><rect class="cls-1" x="120.54" y="229.49" width="4.25" height="15.85"/><rect class="cls-1" x="177.92" y="214.12" width="4.25" height="15.85" transform="translate(-86.9 119.77) rotate(-30)"/><rect class="cls-1" x="219.92" y="172.12" width="4.25" height="15.85" transform="translate(-44.9 282.31) rotate(-60)"/><rect class="cls-1" x="229.49" y="120.54" width="15.85" height="4.25"/><rect class="cls-1" x="214.12" y="63.17" width="15.85" height="4.25" transform="translate(-2.9 119.79) rotate(-30)"/><rect class="cls-1" x="172.12" y="21.17" width="15.85" height="4.25" transform="translate(69.88 167.6) rotate(-60.01)"/><path class="cls-1" d="M128,118.37a6.87,6.87,0,0,0-8.6-1.73L45.6,74l-3,5.18,73.31,42.33a7,7,0,0,0-.1,1.13,6.9,6.9,0,0,0,.51,2.61l-10.13,6,1.58,2.68,10.37-6.13A6.83,6.83,0,0,0,127,128l11,6.36,3-5.19-11.54-6.65a6.89,6.89,0,0,0-.15-1.29l79.56-47-1.59-2.68Z"/></g></g></svg>